# xmcd
#
# Track frame offsets:
#	150
#	14763
#	33277
#	50503
#	61940
#	76135
#	89550
#	109569
#	125798
#	141164
#	155457
#	170171
#	182945
#	195193
#	208692
#	222497
#	235257
#	249857
#
# Disc length: 3500
#
# Revision: 1
# Processed by: cddbd v1.5.1PL0 Copyright (c) Steve Scherf et al.
# Submitted via: CDex 1.50
# Normalized: r0:DSETVAR1,TDELIM( - )
#
DISCID=000daa12
DTITLE=Various Artist - Lounge Wizards - Jazz after hours 2
DYEAR=1900
DGENRE=Jazz
TTITLE0=Dester Gordon - I can't escape from you
TTITLE1=Charlie Parker - Out of nowhere
TTITLE2=Ben Webster - Memories of you
TTITLE3=Dizzy Gillespie - 'Round about midnight
TTITLE4=Coleman Hawkins - April in Paris
TTITLE5=Bobby Hacket - I don't stand a ghost of a chance
TTITLE6=Tommy Dorsey - I'm getting sentimental over you
TTITLE7=Oscar Peterson - East of the sun
TTITLE8=Benny Goodman - Moonglow
TTITLE9=Red Norvo - The night is blue
TTITLE10=Ben Webster - Honeysuckle Rose
TTITLE11=Dizzy Gillespie - All the things you are
TTITLE12=Stan Getz - And the angles swing
TTITLE13=Charlie Ventura - Dark eyes
TTITLE14=Miles Davis - Moondreams
TTITLE15=Charlie Parker - Don't blame me
TTITLE16=Errol Garner - Gaslight
TTITLE17=Kansas City Five - Good mornin blues
EXTD=
EXTT0=
EXTT1=
EXTT2=
EXTT3=
EXTT4=
EXTT5=
EXTT6=
EXTT7=
EXTT8=
EXTT9=
EXTT10=
EXTT11=
EXTT12=
EXTT13=
EXTT14=
EXTT15=
EXTT16=
EXTT17=
PLAYORDER=
